<svg viewBox="0 0 195 44" xmlns="http://www.w3.org/2000/svg" width="195" height="44">
  <!-- PF Mark at 44×44, Forest Green #2D6A4F -->
  <svg x="0" y="0" width="44" height="44" viewBox="0 0 512 512">
    <g transform="translate(0,512) scale(0.1,-0.1)" fill="#2D6A4F" stroke="none">
      <path d="M1312 2663 l3 -928 182 -3 183 -2 2 342 3 343 290 6 c313 6 323 8 440 66 178 90 300 274 312 473 17 273 -152 513 -422 601 -68 23 -82 23 -533 27 l-462 3 2 -928z m880 597 c65 -18 130 -70 160 -129 56 -107 29 -257 -58 -329 -68 -56 -101 -62 -371 -62 l-243 0 0 265 0 265 238 0 c130 0 254 -5 274 -10z"/>
      <path d="M2625 3567 c96 -70 190 -186 234 -290 l20 -47 452 2 451 3 79 169 c43 92 79 172 79 177 0 5 -282 9 -672 9 l-673 -1 30 -22z"/>
      <path d="M2915 2903 c-15 -95 -39 -177 -71 -239 -19 -37 -34 -71 -34 -76 0 -4 144 -8 320 -8 l320 0 29 63 c16 34 54 115 84 180 l56 117 -349 0 -349 0 -6 -37z"/>
      <path d="M2685 2450 c-71 -75 -219 -163 -307 -184 l-28 -6 0 -265 0 -265 185 0 c140 0 187 3 190 13 3 6 4 178 3 380 l-3 368 -40 -41z"/>
    </g>
  </svg>
  <!-- Vertical rule -->
  <rect x="58" y="3.3" width="1.5" height="37.4" fill="#1B2A4A" fill-opacity="0.2"/>
  <!-- Wordmark -->
  <text x="73.5" y="20" font-family="'Barlow Condensed', system-ui, sans-serif" font-size="20" font-weight="700" fill="#1B2A4A" letter-spacing="0.5">PathForward</text>
  <text x="73.5" y="38" font-family="'Barlow Condensed', system-ui, sans-serif" font-size="14" font-weight="600" fill="#2D6A4F" letter-spacing="1.5">Tools</text>
</svg>
